# xmcd
#
# Track frame offsets:
#	150
#	11996
#	25835
#	39683
#	51748
#	66171
#	78455
#	93372
#	106292
#	119428
#	132374
#	144355
#	158665
#	170761
#
# Disc length: 2412 seconds
# Revision: 1
# Processed by: cddbd v1.5.2PL0 Copyright (c) Steve Scherf et al.
# Submitted via: dBpowerAMP V12.0
#
DISCID=c5096a0e
DTITLE=John Lee Hooker - The Very Best of...
DYEAR=1900
DGENRE=Blues
TTITLE0=Little Boy Blue
TTITLE1=Louise Louise
TTITLE2=Low Down Midnight Boogie
TTITLE3=Mad Man Blues
TTITLE4=Mean Old Train
TTITLE5=Morning Blues
TTITLE6=My Dady Was a Jockey
TTITLE7=609 Boogie
TTITLE8=I Need Lovin'
TTITLE9=Looking for Romance
TTITLE10=Reach My Goal
TTITLE11=Whistle Down Blown
TTITLE12=How Can You Do It
TTITLE13=Feed Her All Right
EXTD=
EXTT0=
EXTT1=
EXTT2=
EXTT3=
EXTT4=
EXTT5=
EXTT6=
EXTT7=
EXTT8=
EXTT9=
EXTT10=
EXTT11=
EXTT12=
EXTT13=
PLAYORDER=
